HIERARCHY
ROOT Hips
{
	OFFSET	0.00	0.00	0.00
	CHANNELS 6 Xposition Yposition Zposition Zrotation Xrotation Yrotation
	JOINT LeftUpperLeg
	{
		OFFSET	 0.000000	-0.151056	 0.000000
		CHANNELS 3 Zrotation Xrotation Yrotation
		JOINT LeftLowerLeg
		{
			OFFSET	 0.559505	 0.000000	 0.000000
			CHANNELS 3 Zrotation Xrotation Yrotation
			JOINT LeftFoot
			{
				OFFSET	 0.559505	 0.000000	 0.000000
				CHANNELS 3 Zrotation Xrotation Yrotation
				JOINT LeftToes
				{
					OFFSET	 0.170881	 0.000000	 0.250536
					CHANNELS 3 Zrotation Xrotation Yrotation
					End Site
					{
						OFFSET	 0.170881	 0.000000	 0.250536
					}
				}
			}
		}
	}
	JOINT RightUpperLeg
	{
		OFFSET	 0.000000	 0.151056	-0.000000
		CHANNELS 3 Zrotation Xrotation Yrotation
		JOINT RightLowerLeg
		{
			OFFSET	 0.559505	 0.000000	 0.000000
			CHANNELS 3 Zrotation Xrotation Yrotation
			JOINT RightFoot
			{
				OFFSET	 0.559505	 0.000000	 0.000000
				CHANNELS 3 Zrotation Xrotation Yrotation
				JOINT RightToes
				{
					OFFSET	 0.170881	 0.000000	 0.250536
					CHANNELS 3 Zrotation Xrotation Yrotation
					End Site
					{
						OFFSET	 0.170881	 0.000000	 0.250536
					}
				}
			}
		}
	}
	JOINT Spine
	{
		OFFSET	 0.128686	 0.000000	-0.000155
		CHANNELS 3 Zrotation Xrotation Yrotation
		JOINT Chest
		{
			OFFSET	 0.193962	 0.000000	-0.000154
			CHANNELS 3 Zrotation Xrotation Yrotation
			JOINT B_Spine2
			{
				OFFSET	 0.193962	 0.000000	-0.000154
				CHANNELS 3 Zrotation Xrotation Yrotation
				JOINT LeftShoulder
				{
					OFFSET	 0.193962	-0.057714	-0.000009
					CHANNELS 3 Zrotation Xrotation Yrotation
					JOINT LeftUpperArm
					{
						OFFSET	 0.279178	 0.000000	 0.000000
						CHANNELS 3 Zrotation Xrotation Yrotation
						JOINT LeftLowerArm
						{
							OFFSET	 0.418437	-0.000000	 0.000000
							CHANNELS 3 Zrotation Xrotation Yrotation
							JOINT LeftHand
							{
								OFFSET	 0.319113	 0.000000	-0.000000
								CHANNELS 3 Zrotation Xrotation Yrotation
								JOINT LeftThumbProximal
								{
									OFFSET	 0.141490	 0.101064	-0.000081
									CHANNELS 3 Zrotation Xrotation Yrotation
									JOINT LeftThumbIntermediate
									{
										OFFSET	 0.061423	 0.000000	 0.000000
										CHANNELS 3 Zrotation Xrotation Yrotation
										JOINT LeftThumbDistal
										{
											OFFSET	 0.061423	-0.000000	 0.000000
											CHANNELS 3 Zrotation Xrotation Yrotation
											End Site
											{
												OFFSET	 0.061423	-0.000000	 0.000000
											}
										}
									}
								}
								JOINT LeftIndexProximal
								{
									OFFSET	 0.205475	 0.059923	-0.034993
									CHANNELS 3 Zrotation Xrotation Yrotation
									JOINT LeftIndexIntermediate
									{
										OFFSET	 0.073708	-0.000000	 0.000000
										CHANNELS 3 Zrotation Xrotation Yrotation
										JOINT LeftIndexDistal
										{
											OFFSET	 0.073708	 0.000000	-0.000000
											CHANNELS 3 Zrotation Xrotation Yrotation
											End Site
											{
												OFFSET	 0.073708	 0.000000	-0.000000
											}
										}
									}
								}
								JOINT LeftMiddleProximal
								{
									OFFSET	 0.205475	 0.019497	-0.034961
									CHANNELS 3 Zrotation Xrotation Yrotation
									JOINT LeftMiddleIntermediate
									{
										OFFSET	 0.085992	-0.000000	 0.000000
										CHANNELS 3 Zrotation Xrotation Yrotation
										JOINT LeftMiddleDistal
										{
											OFFSET	 0.085993	 0.000000	 0.000000
											CHANNELS 3 Zrotation Xrotation Yrotation
											End Site
											{
												OFFSET	 0.085993	 0.000000	 0.000000
											}
										}
									}
								}
								JOINT LeftRingProximal
								{
									OFFSET	 0.205475	-0.020928	-0.034929
									CHANNELS 3 Zrotation Xrotation Yrotation
									JOINT LeftRingIntermediate
									{
										OFFSET	 0.073708	 0.000000	 0.000000
										CHANNELS 3 Zrotation Xrotation Yrotation
										JOINT LeftRingDistal
										{
											OFFSET	 0.073708	 0.000000	 0.000000
											CHANNELS 3 Zrotation Xrotation Yrotation
											End Site
											{
												OFFSET	 0.073708	 0.000000	 0.000000
											}
										}
									}
								}
								JOINT LeftLittleProximal
								{
									OFFSET	 0.205475	-0.061354	-0.034897
									CHANNELS 3 Zrotation Xrotation Yrotation
									JOINT LeftLittleIntermediate
									{
										OFFSET	 0.061423	-0.000000	 0.000000
										CHANNELS 3 Zrotation Xrotation Yrotation
										JOINT LeftLittleDistal
										{
											OFFSET	 0.061423	 0.000000	-0.000000
											CHANNELS 3 Zrotation Xrotation Yrotation
											End Site
											{
												OFFSET	 0.061423	 0.000000	-0.000000
											}
										}
									}
								}
							}
						}
					}
				}
				JOINT Neck
				{
					OFFSET	 0.193962	-0.000000	-0.000102
					CHANNELS 3 Zrotation Xrotation Yrotation
					JOINT Head
					{
						OFFSET	 0.128209	 0.000000	 0.000000
						CHANNELS 3 Zrotation Xrotation Yrotation
						End Site
						{
							OFFSET	 0.128209	 0.000000	 0.000000
						}
					}
				}
				JOINT RightShoulder
				{
					OFFSET	 0.193962	 0.057714	 0.000009
					CHANNELS 3 Zrotation Xrotation Yrotation
					JOINT RightUpperArm
					{
						OFFSET	 0.279177	 0.000000	 0.000000
						CHANNELS 3 Zrotation Xrotation Yrotation
						JOINT RightLowerArm
						{
							OFFSET	 0.418437	-0.000000	 0.000000
							CHANNELS 3 Zrotation Xrotation Yrotation
							JOINT RightHand
							{
								OFFSET	 0.319113	 0.000000	 0.000000
								CHANNELS 3 Zrotation Xrotation Yrotation
								JOINT RightThumbProximal
								{
									OFFSET	 0.141490	-0.101064	-0.000081
									CHANNELS 3 Zrotation Xrotation Yrotation
									JOINT RightThumbIntermediate
									{
										OFFSET	 0.061423	 0.000000	-0.000000
										CHANNELS 3 Zrotation Xrotation Yrotation
										JOINT RightThumbDistal
										{
											OFFSET	 0.061423	-0.000000	 0.000000
											CHANNELS 3 Zrotation Xrotation Yrotation
											End Site
											{
												OFFSET	 0.061423	-0.000000	 0.000000
											}
										}
									}
								}
								JOINT RightIndexProximal
								{
									OFFSET	 0.205475	-0.059923	-0.034993
									CHANNELS 3 Zrotation Xrotation Yrotation
									JOINT RightIndexIntermediate
									{
										OFFSET	 0.073708	 0.000000	 0.000000
										CHANNELS 3 Zrotation Xrotation Yrotation
										JOINT RightIndexDistal
										{
											OFFSET	 0.073708	 0.000000	-0.000000
											CHANNELS 3 Zrotation Xrotation Yrotation
											End Site
											{
												OFFSET	 0.073708	 0.000000	-0.000000
											}
										}
									}
								}
								JOINT RightMiddleProximal
								{
									OFFSET	 0.205475	-0.019498	-0.034961
									CHANNELS 3 Zrotation Xrotation Yrotation
									JOINT RightMiddleIntermediate
									{
										OFFSET	 0.085992	 0.000000	-0.000000
										CHANNELS 3 Zrotation Xrotation Yrotation
										JOINT RightMiddleDistal
										{
											OFFSET	 0.085992	-0.000000	 0.000000
											CHANNELS 3 Zrotation Xrotation Yrotation
											End Site
											{
												OFFSET	 0.085992	-0.000000	 0.000000
											}
										}
									}
								}
								JOINT RightRingProximal
								{
									OFFSET	 0.205475	 0.020928	-0.034929
									CHANNELS 3 Zrotation Xrotation Yrotation
									JOINT RightRingIntermediate
									{
										OFFSET	 0.073708	 0.000000	 0.000000
										CHANNELS 3 Zrotation Xrotation Yrotation
										JOINT RightRingDistal
										{
											OFFSET	 0.073708	 0.000000	-0.000000
											CHANNELS 3 Zrotation Xrotation Yrotation
											End Site
											{
												OFFSET	 0.073708	 0.000000	-0.000000
											}
										}
									}
								}
								JOINT RightLittleProximal
								{
									OFFSET	 0.205475	 0.061354	-0.034897
									CHANNELS 3 Zrotation Xrotation Yrotation
									JOINT RightLittleIntermediate
									{
										OFFSET	 0.061423	-0.000000	 0.000000
										CHANNELS 3 Zrotation Xrotation Yrotation
										JOINT RightLittleDistal
										{
											OFFSET	 0.061424	 0.000000	 0.000000
											CHANNELS 3 Zrotation Xrotation Yrotation
											End Site
											{
												OFFSET	 0.061424	 0.000000	 0.000000
											}
										}
									}
								}
							}
						}
					}
				}
			}
		}
	}
}
MOTION
Frames:    7
Frame Time: 0.01666667
 0.123051	-0.034856	 0.883200	 33.420630	 6.366597	-102.210000	-138.643200	-29.621610	-53.009220	-25.140750	-0.701901	 91.494430	-23.030690	 7.868214	-31.575250	-0.000000	 0.000083	-98.268100	 143.508600	 46.481700	-34.356280	-5.664852	 2.098523	 69.741010	 27.658230	-1.026108	 1.562896	 0.000008	 0.000064	-96.103230	-1.087549	-13.432150	-2.120595	-3.716643	-0.400506	-4.850743	-0.000000	-0.008579	-0.000003	 83.203630	 0.564515	 170.523500	 27.644700	-7.021844	-32.501420	 4.715920	-30.486870	 91.616040	 168.316300	-79.232510	 158.066100	 67.288100	 38.419140	-28.094470	-12.120190	 2.448730	-21.110270	-17.451480	 3.477350	-37.602580	 14.094590	-6.912443	-7.673123	 2.037944	-4.013230	-37.505000	 1.520183	-3.401888	-37.676040	 2.221966	-3.821018	 6.177453	 3.613478	-5.818697	-60.480770	 1.366040	-3.335066	-36.075590	-8.766970	 1.961417	-29.539090	 1.753247	-3.808293	-34.161150	 1.196502	-3.267247	-34.336640	-13.041550	 4.748735	-44.279670	 2.600732	-4.502242	-44.610680	 1.205455	-3.270634	-34.427910	-8.933095	-2.311289	-18.422490	-38.523850	 49.361770	 51.343570	-83.869010	-0.104471	 178.040900	-35.862550	-9.884998	-2.290556	-11.093940	 14.375820	 70.357310	-148.036400	 68.675400	 145.901900	-66.784800	-38.489650	-28.760150	 9.845376	-1.643462	-17.888260	 15.164740	-2.526675	-34.334900	-15.113490	 7.096153	-2.851868	-1.633274	 3.729141	-32.790630	-1.061782	 3.217577	-32.967900	-2.602137	 4.109416	 10.999610	-3.349921	 5.397211	-55.743820	-0.902887	 3.163469	-31.368430	 9.105790	-1.722000	-24.724720	-1.332794	 3.548169	-29.449240	-0.728527	 3.109927	-29.630520	 13.745650	-4.750915	-39.442600	-2.233959	 4.170059	-39.890520	-0.737680	 3.112549	-29.721760
 0.123076	-0.039972	 0.886964	 34.372640	 6.750086	-102.351100	-138.878600	-29.666250	-53.743000	-25.642710	-0.719863	 91.498420	-22.313150	 7.618446	-31.579940	-0.000000	 0.000083	-98.217280	 143.394900	 46.465870	-32.854950	-6.136269	 2.418784	 68.569980	 27.866470	-0.825799	 2.401836	 0.000008	 0.000064	-96.424960	-1.244502	-13.430690	-1.836989	-3.869080	-0.391838	-4.531714	-0.000000	-0.008579	-0.000003	 82.363240	 0.638026	 170.471200	 25.504210	-6.521962	-31.012580	 4.729774	-29.742020	 91.497530	 167.852000	-79.173640	 158.203600	 67.132260	 38.423900	-28.625840	-12.958950	 2.782315	-22.306730	-18.316620	 3.877339	-38.849830	 13.712930	-6.820871	-9.508872	 2.185972	-4.130269	-39.302250	 1.690707	-3.481995	-39.470790	 2.091341	-3.704682	 4.341003	 3.704609	-5.984846	-62.287350	 1.538676	-3.410372	-37.869900	-8.625921	 2.040752	-31.373950	 1.907728	-3.916455	-35.957410	 1.371287	-3.337268	-36.130570	-12.765790	 4.725798	-46.122120	 2.733367	-4.636824	-46.410270	 1.380129	-3.340925	-36.221850	-9.077452	-2.328316	-18.104850	-36.514320	 50.461820	 49.022950	-83.516320	-0.109554	 178.057400	-37.199010	-10.229500	-2.791198	-11.028180	 14.461790	 69.628850	-147.838300	 68.637700	 145.693400	-67.207220	-38.444350	-27.925700	 9.304793	-1.472992	-17.127190	 14.619090	-2.321985	-33.560740	-15.358450	 7.127491	-1.707053	-1.533905	 3.666615	-31.672300	-0.950953	 3.179387	-31.850970	-2.700325	 4.173847	 12.144560	-3.282397	 5.300549	-54.620460	-0.791066	 3.128396	-30.251730	 9.179144	-1.658933	-23.582400	-1.230019	 3.491562	-28.331440	-0.615728	 3.078259	-28.514050	 13.907960	-4.739360	-38.294510	-2.142936	 4.095667	-38.770940	-0.624928	 3.080700	-28.605240
 0.123152	-0.044061	 0.890325	 35.139600	 7.044059	-102.461200	-139.094400	-29.693770	-54.299590	-26.046580	-0.710573	 91.452760	-21.741380	 7.415769	-31.564950	-0.000000	 0.000083	-98.169120	 143.344400	 46.465180	-31.691160	-6.481812	 2.688620	 67.568160	 28.028720	-0.661041	 3.081555	 0.000008	 0.000064	-96.681640	-1.348258	-13.430390	-1.608674	-3.969880	-0.386810	-4.280009	-0.000000	-0.008579	-0.000003	 81.726770	 0.693713	 170.439100	 24.199990	-6.152982	-29.906630	 4.742090	-29.149890	 91.376140	 167.424200	-79.122510	 158.245400	 67.023070	 38.425150	-29.053420	-13.642160	 3.069080	-23.285170	-18.993750	 4.206358	-39.830730	 13.416070	-6.740726	-10.950670	 2.299713	-4.225477	-40.714870	 1.822929	-3.548677	-40.881350	 1.994424	-3.611143	 2.898371	 3.772535	-6.117401	-63.707590	 1.672666	-3.473325	-39.280160	-8.510637	 2.098161	-32.815860	 2.026734	-4.004831	-37.369230	 1.507075	-3.396114	-37.540470	-12.546620	 4.698938	-47.569480	 2.834624	-4.745485	-47.824860	 1.515829	-3.399983	-37.631770	-9.171816	-2.344050	-17.854230	-34.920380	 51.281730	 47.128620	-83.227090	-0.113534	 178.073000	-38.214810	-10.480460	-3.209541	-10.973930	 14.532390	 69.054660	-147.676900	 68.607520	 145.519300	-67.535790	-38.412770	-27.271870	 8.881755	-1.345061	-16.532690	 14.191960	-2.167570	-32.956080	-15.550670	 7.148695	-0.812154	-1.455415	 3.619109	-30.798340	-0.863838	 3.151046	-30.978070	-2.779218	 4.223036	 13.039610	-3.228322	 5.225945	-53.742660	-0.703217	 3.102504	-29.379000	 9.234501	-1.608059	-22.689630	-1.148948	 3.448723	-27.457860	-0.527160	 3.055040	-27.641490	 14.033370	-4.727170	-37.397090	-2.070806	 4.038774	-37.895990	-0.536397	 3.057342	-27.732680
 0.122863	-0.048361	 0.894291	 35.898210	 7.317354	-102.563000	-139.348200	-29.708510	-54.796480	-26.441500	-0.663232	 91.332600	-21.178960	 7.212403	-31.528500	-0.000000	 0.000083	-98.109710	 143.048800	 46.379850	-30.027850	-6.808693	 2.977183	 66.492970	 28.174800	-0.482259	 3.808017	 0.000008	 0.000064	-96.959260	-1.429623	-13.430760	-1.384853	-4.048939	-0.383508	-4.037814	-0.000000	-0.008579	-0.000003	 81.136960	 0.745208	 170.415500	 23.038440	-5.811258	-28.854930	 4.755166	-28.576090	 91.235000	 166.968800	-79.069510	 158.239100	 66.928570	 38.424290	-29.473030	-14.292970	 3.355030	-24.220650	-19.643460	 4.535506	-40.776050	 13.132670	-6.656734	-12.338850	 2.407048	-4.319820	-42.075800	 1.948730	-3.615970	-42.240230	 1.905566	-3.519360	 1.509151	 3.834849	-6.246657	-65.076100	 1.800254	-3.537071	-40.638730	-8.396167	 2.149315	-34.204800	 2.139302	-4.092716	-38.729380	 1.636493	-3.455946	-38.898700	-12.333750	 4.665681	-48.963210	 2.929619	-4.852496	-49.187710	 1.645156	-3.460015	-38.990030	-9.244641	-2.361116	-17.613110	-33.366990	 52.027310	 45.239220	-82.929130	-0.117536	 178.089200	-39.072420	-10.703450	-3.617532	-10.930210	 14.592010	 68.496210	-147.509700	 68.563930	 145.355400	-67.851030	-38.385510	-26.640760	 8.473833	-1.226219	-15.960280	 13.782010	-2.024123	-32.376800	-15.736350	 7.166362	 0.049938	-1.379143	 3.574488	-29.956570	-0.779536	 3.125008	-30.137330	-2.856943	 4.269404	 13.901950	-3.175168	 5.154879	-52.897300	-0.618243	 3.078832	-28.538420	 9.286192	-1.557792	-21.829690	-1.070261	 3.408636	-26.616500	-0.441533	 3.033954	-26.801080	 14.152970	-4.712879	-36.532640	-2.000524	 3.985023	-37.053280	-0.450803	 3.036119	-26.892260
 0.123006	-0.052470	 0.898777	 36.668340	 7.577464	-102.658800	-139.645700	-29.710380	-55.246980	-26.838020	-0.575632	 91.136740	-20.611020	 7.003410	-31.470070	-0.000000	 0.000083	-98.037650	 143.051500	 46.390870	-28.866690	-7.125734	 3.293971	 65.317400	 28.306030	-0.284099	 4.602988	 0.000008	 0.000064	-97.266570	-1.490274	-13.431650	-1.160208	-4.107915	-0.381676	-3.799480	-0.000000	-0.008579	-0.000003	 80.579930	 0.793574	 170.399400	 21.967750	-5.485260	-27.827210	 4.769286	-28.007050	 91.070820	 166.476800	-79.013340	 158.186700	 66.846330	 38.421200	-29.894750	-14.926240	 3.645460	-25.134360	-20.281660	 4.871902	-41.708830	 12.856050	-6.567541	-13.706950	 2.510692	-4.415334	-43.418030	 2.071209	-3.685237	-43.580380	 1.822601	-3.427452	 0.139613	 3.893266	-6.375555	-66.426050	 1.924577	-3.602878	-41.978550	-8.279938	 2.195556	-35.574410	 2.248254	-4.181978	-40.070810	 1.762711	-3.517937	-40.238200	-12.122220	 4.625615	-50.337030	 3.020796	-4.960214	-50.531880	 1.771278	-3.522203	-40.329550	-9.297428	-2.379795	-17.375800	-31.822630	 52.717880	 43.315200	-82.613970	-0.121699	 178.106100	-39.947830	-10.936760	-4.050147	-10.896540	 14.641840	 67.939510	-147.332800	 68.505130	 145.199200	-68.160770	-38.361660	-26.016710	 8.070962	-1.113164	-15.395750	 13.378680	-1.887490	-31.807850	-15.920080	 7.181142	 0.900707	-1.303257	 3.531563	-29.126010	-0.695992	 3.100528	-29.307760	-2.935341	 4.314154	 14.752980	-3.121703	 5.085533	-52.063220	-0.534068	 3.056698	-27.708990	 9.335549	-1.506979	-20.981180	-0.992057	 3.370217	-25.786330	-0.356753	 3.014380	-25.971840	 14.269720	-4.696292	-35.679630	-1.930416	 3.933010	-36.221850	-0.366055	 3.016409	-26.063020
 0.123097	-0.056635	 0.903766	 37.434860	 7.821718	-102.748100	-139.975000	-29.699480	-55.641990	-27.229750	-0.449872	 90.873400	-20.050210	 6.794197	-31.392820	-0.000000	 0.000083	-97.954610	 143.038100	 46.389370	-27.643010	-7.459883	 3.647788	 64.087220	 28.373410	-0.056999	 5.504111	 0.000008	 0.000064	-97.631400	-1.524302	-13.432940	-0.943781	-4.141035	-0.381456	-3.575386	-0.000000	-0.008579	-0.000003	 80.082060	 0.836491	 170.390600	 21.063250	-5.184626	-26.871250	 4.784004	-27.467650	 90.888010	 165.975900	-78.956590	 158.098100	 66.777630	 38.416360	-30.300740	-15.525170	 3.931386	-26.001800	-20.883790	 5.201405	-42.592910	 12.596470	-6.477171	-15.002570	 2.606825	-4.508056	-44.689980	 2.185755	-3.753497	-44.850300	 1.747893	-3.339108	-1.157627	 3.945802	-6.498934	-67.705540	 2.040944	-3.667900	-43.248160	-8.167040	 2.235549	-36.872050	 2.349552	-4.268892	-41.341960	 1.880954	-3.579382	-41.507490	-11.920680	 4.581078	-51.638170	 3.104851	-5.064235	-51.805770	 1.889426	-3.583832	-41.598850	-9.324695	-2.399395	-17.152680	-30.349720	 53.320530	 41.430900	-82.282320	-0.126119	 178.121800	-40.704590	-11.121670	-4.465654	-10.854620	 14.702570	 67.403690	-147.175000	 68.460020	 145.039100	-68.454930	-38.341710	-25.420570	 7.686496	-1.009248	-14.857710	 12.986180	-1.758791	-31.255090	-16.095660	 7.192762	 1.711934	-1.230344	 3.491668	-28.334210	-0.616025	 3.078317	-28.516870	-3.011581	 4.355855	 15.564520	-3.069805	 5.020159	-51.268160	-0.453534	 3.036731	-26.918270	 9.381124	-1.457472	-20.172200	-0.916992	 3.334648	-24.994870	-0.275672	 2.996861	-25.181270	 14.379890	-4.678262	-34.866330	-1.862888	 3.884372	-35.429210	-0.285001	 2.998761	-25.272440
 0.123061	-0.062313	 0.911178	 38.447750	 8.122344	-102.856100	-140.459500	-29.665200	-56.079830	-27.742720	-0.221652	 90.420650	-19.316420	 6.516517	-31.261880	-0.000000	 0.000083	-97.827040	 142.941900	 46.349960	-25.817450	-7.922816	 4.179341	 62.361870	 28.364300	 0.286551	 6.863464	 0.000007	 0.000064	-98.201180	-1.525237	-13.435030	-0.671908	-4.142042	-0.383473	-3.303299	-0.000000	-0.008579	-0.000003	 79.521690	 0.884138	 170.389200	 20.141530	-4.820331	-25.724920	 4.804289	-26.805140	 90.617310	 165.306500	-78.880940	 157.929500	 66.706180	 38.407540	-30.809560	-16.260100	 4.297449	-27.070860	-21.621480	 5.621462	-43.681660	 12.280700	-6.358294	-16.596250	 2.722315	-4.625089	-46.255850	 2.324650	-3.840978	-46.413550	 1.661550	-3.228953	-2.753881	 4.006668	-6.652382	-69.280980	 2.182181	-3.751454	-44.811040	-8.024341	 2.279428	-38.469220	 2.471575	-4.378930	-42.906800	 2.024607	-3.658591	-43.069970	-11.671190	 4.517252	-53.238920	 3.205127	-5.194808	-53.374090	 2.032957	-3.663262	-43.161320	-9.318591	-2.426446	-16.881750	-28.543070	 53.980360	 39.030180	-81.812470	-0.132564	 178.139400	-41.518940	-11.304570	-4.983937	-10.793450	 14.791880	 66.727290	-146.992100	 68.413180	 144.829500	-68.819980	-38.320640	-24.675750	 7.206797	-0.885001	-14.187300	 12.499910	-1.605122	-30.571450	-16.315090	 7.203876	 2.723400	-1.138695	 3.443349	-27.347150	-0.515923	 3.052174	-27.530930	-3.108799	 4.406502	 16.576470	-3.003851	 4.939678	-50.277080	-0.352762	 3.013398	-25.932500	 9.435822	-1.394299	-19.163640	-0.822742	 3.291763	-24.008210	-0.174268	 2.976588	-24.195680	 14.515560	-4.652732	-33.852360	-1.777779	 3.825053	-34.441100	-0.183629	 2.978329	-24.286860
